<svg id="e1UoLlG5Zhj1" xmlns="http://www.w3.org/2000/svg" xmlns:xlink="http://www.w3.org/1999/xlink"
  viewBox="0 0 500 500" shape-rendering="geometricPrecision" text-rendering="geometricPrecision">
  <style>
    line {
      stroke: #000;
    }
/* 
    @media (prefers-color-scheme: dark) {
      line {
        stroke: #fff;
      }
    } */
  </style>
  <g transform="matrix(3.660925 0 0 3.660925-656.664363-665.231305)">
    <g transform="translate(54.39385-20.478828)">
      <g transform="translate(.000001 0.000001)">
        <line x1="-25" y1="0" x2="25" y2="0" transform="matrix(.573576 0.819152-.819152 0.573576 238.559913 250)"
          fill="none" stroke-width="8" stroke-linecap="round" stroke-linejoin="round" />
        <line x1="-25" y1="0" x2="25" y2="0" transform="matrix(.573576-.819152 0.819152 0.573576 238.559913 290.957602)"
          fill="none" stroke-width="8" stroke-linecap="round" stroke-linejoin="round" />
      </g>
      <g transform="matrix(-1.000001 0 0-1.000001 422.419629 540.957912)">
        <line x1="-25" y1="0" x2="25" y2="0" transform="matrix(.573576 0.819152-.819152 0.573576 233.529046 250)"
          fill="none" stroke-width="8" stroke-linecap="round" stroke-linejoin="round" />
        <line x1="-25" y1="0" x2="25" y2="0" transform="matrix(.573576-.819152 0.819152 0.573576 233.529046 290.957602)"
          fill="none" stroke-width="8" stroke-linecap="round" stroke-linejoin="round" />
      </g>
      <line x1="5.495366" y1="-30.957643" x2="-5.495366" y2="30.957643" transform="translate(213.725137 270.478841)"
        fill="none" stroke-width="8" stroke-linecap="round" stroke-linejoin="round" />
    </g>
    <g transform="matrix(-1.000001 0 0-1.000001 471.7053 520.479084)">
      <line x1="-25" y1="0" x2="25" y2="0" transform="matrix(.573576 0.819152-.819152 0.573576 240.660107 250)"
        fill="none" stroke-width="8" stroke-linecap="round" stroke-linejoin="round" />
      <line x1="-25" y1="0" x2="75" y2="0" transform="matrix(.573576-.819152 0.819152 0.573576 240.660107 290.957602)"
        fill="none" stroke-width="8" stroke-linecap="round" stroke-linejoin="round" />
      <line x1="0" y1="40.957603" x2="0" y2="-40.957603" transform="translate(283.67834 270.478798)" fill="none"
       stroke-width="8" stroke-linecap="round" stroke-linejoin="round" />
    </g>
  </g>
</svg>